<svg width="416" height="307" viewBox="0 0 416 307" fill="none" xmlns="http://www.w3.org/2000/svg">
<path opacity="0.1" d="M241.699 46.0329C215.031 45.1062 189.629 36.4673 165.376 27.0235C141.123 17.5797 117.095 7.11333 91.0669 2.10717C74.3238 -1.11213 55.1768 -1.55884 41.6881 7.43452C28.7037 16.0956 24.5106 31.0624 22.2576 44.9253C20.5604 55.3659 19.5628 66.3381 24.2087 76.1252C27.4373 82.9072 33.1693 88.6111 37.1342 95.1087C50.9211 117.725 41.1837 145.61 26.2298 167.687C19.2351 178.046 11.0881 187.926 5.68015 198.953C0.272147 209.981 -2.23122 222.611 2.4994 233.856C7.19321 245.006 18.37 253.379 30.4782 259.267C55.0737 271.229 84.0575 274.655 112.32 276.593C174.885 280.868 237.782 279.022 300.51 277.176C323.725 276.486 347.039 275.788 369.879 272.189C382.558 270.191 395.649 267.02 404.852 259.359C416.541 249.635 419.438 233.169 411.604 220.964C398.469 200.515 362.144 195.435 352.963 173.487C347.908 161.407 353.099 147.95 360.444 136.745C376.2 112.708 402.61 91.6236 404.002 64.1488C404.959 45.2797 392.262 26.3811 372.633 17.4542C352.054 8.09536 323.523 9.27307 308.34 24.7641C292.716 40.7166 265.246 46.8525 241.699 46.0329Z" fill="#FFC107"/>
<path d="M244.512 279.064L172.724 278.141L172.934 276.295L176.406 245.837H239.45L244.089 276.295L244.442 278.602L244.512 279.064Z" fill="#D0D2D5"/>
<path opacity="0.1" d="M244.442 278.602H208.618L172.724 278.141L172.934 276.295H244.089L244.442 278.602Z" fill="black"/>
<path d="M256.017 276.756H160.76V279.064H256.017V276.756Z" fill="#D0D2D5"/>
<path d="M346.9 62.898C346.904 62.1092 346.753 61.3273 346.455 60.5971C346.158 59.8668 345.72 59.2025 345.166 58.642C344.613 58.0815 343.955 57.6358 343.23 57.3303C342.504 57.0249 341.726 56.8657 340.94 56.8618H74.9168C74.1299 56.8652 73.3514 57.024 72.6257 57.3293C71.9001 57.6345 71.2415 58.0801 70.6877 58.6407C70.1338 59.2012 69.6956 59.8658 69.3979 60.5962C69.1002 61.3267 68.949 62.1089 68.9529 62.898V224.601H346.9V62.898Z" fill="#444053"/>
<path d="M68.9532 222.996V241.935C68.9532 243.521 69.5816 245.042 70.7 246.164C71.8185 247.286 73.3354 247.916 74.9171 247.916H340.94C342.521 247.915 344.037 247.284 345.155 246.163C346.272 245.041 346.9 243.52 346.9 241.935V222.996H68.9532Z" fill="#D0D2D5"/>
<path opacity="0.1" d="M336.776 67.0146H80.4576V212.381H336.776V67.0146Z" fill="#FFC107"/>
<path d="M209.307 240.727C210.248 240.728 211.177 240.514 212.024 240.103C212.871 239.691 213.613 239.091 214.196 238.35C214.372 238.124 214.533 237.886 214.678 237.637L211.269 237.076L214.95 237.106C215.305 236.334 215.499 235.498 215.519 234.648C215.54 233.799 215.386 232.954 215.068 232.166L210.124 234.75L214.685 231.391C214.257 230.654 213.682 230.012 212.996 229.507C212.31 229.002 211.528 228.644 210.698 228.455C209.868 228.265 209.009 228.249 208.173 228.407C207.336 228.564 206.541 228.892 205.837 229.371C205.132 229.85 204.533 230.468 204.077 231.189C203.621 231.909 203.317 232.716 203.185 233.559C203.053 234.402 203.094 235.263 203.308 236.089C203.521 236.915 203.901 237.688 204.425 238.361C205.007 239.1 205.749 239.697 206.595 240.107C207.44 240.517 208.368 240.729 209.307 240.727Z" fill="#FFC107"/>
<path opacity="0.1" d="M215.521 247.916L244.159 276.756L239.767 247.916H215.521Z" fill="black"/>
<path d="M255.269 93.2412H88.943C88.4144 93.2412 87.9858 93.671 87.9858 94.2011V193.438C87.9858 193.968 88.4144 194.398 88.943 194.398H255.269C255.798 194.398 256.227 193.968 256.227 193.438V94.2011C256.227 93.671 255.798 93.2412 255.269 93.2412Z" fill="white"/>
<path d="M336.85 67.0293H80.623V75.5206H336.85V67.0293Z" fill="white"/>
<path d="M88.8031 68.5059H82.0146C81.856 68.5059 81.7274 68.6348 81.7274 68.7938V73.3865C81.7274 73.5455 81.856 73.6745 82.0146 73.6745H88.8031C88.9617 73.6745 89.0902 73.5455 89.0902 73.3865V68.7938C89.0902 68.6348 88.9617 68.5059 88.8031 68.5059Z" fill="#FFC107"/>
<path opacity="0.3" d="M246.441 68.5059H169.559C169.441 68.5059 169.345 68.6017 169.345 68.72V73.4603C169.345 73.5786 169.441 73.6745 169.559 73.6745H246.441C246.559 73.6745 246.655 73.5786 246.655 73.4603V68.72C246.655 68.6017 246.559 68.5059 246.441 68.5059Z" fill="#FFC107"/>
<path d="M244.361 71.6221H244.174L244.104 71.563C244.34 71.2819 244.47 70.9265 244.472 70.5588C244.47 70.2569 244.378 69.9623 244.209 69.7124C244.04 69.4624 243.801 69.2682 243.523 69.1543C243.244 69.0405 242.937 69.012 242.642 69.0725C242.347 69.133 242.077 69.2798 241.865 69.4944C241.653 69.7089 241.509 69.9816 241.452 70.2781C241.394 70.5745 241.426 70.8813 241.542 71.1599C241.658 71.4385 241.854 71.6763 242.105 71.8433C242.356 72.0103 242.65 72.0991 242.951 72.0983C243.318 72.0961 243.672 71.9655 243.953 71.7292L244.023 71.7882V71.9802L245.201 73.1616L245.569 72.7924L244.361 71.6221ZM242.948 71.6221C242.737 71.6228 242.531 71.5608 242.355 71.4438C242.18 71.3269 242.043 71.1603 241.962 70.9652C241.881 70.7701 241.859 70.5552 241.9 70.3479C241.941 70.1406 242.043 69.9502 242.192 69.8007C242.341 69.6513 242.531 69.5496 242.737 69.5085C242.944 69.4675 243.158 69.4889 243.353 69.5701C243.547 69.6514 243.714 69.7887 243.83 69.9647C243.947 70.1407 244.009 70.3475 244.008 70.5588C244.009 70.6987 243.982 70.8375 243.929 70.9669C243.876 71.0963 243.798 71.2139 243.7 71.3129C243.601 71.4118 243.484 71.4901 243.355 71.5432C243.226 71.5963 243.087 71.6231 242.948 71.6221Z" fill="#444053"/>
<path d="M333.168 73.6745C334.592 73.6745 335.745 72.5174 335.745 71.0902C335.745 69.6629 334.592 68.5059 333.168 68.5059C331.745 68.5059 330.591 69.6629 330.591 71.0902C330.591 72.5174 331.745 73.6745 333.168 73.6745Z" fill="#FFC107"/>
<path d="M291.41 84.7505H269.27C268.776 84.7505 268.375 85.1521 268.375 85.6476V100.098C268.375 100.593 268.776 100.995 269.27 100.995H291.41C291.904 100.995 292.305 100.593 292.305 100.098V85.6476C292.305 85.1521 291.904 84.7505 291.41 84.7505Z" fill="white"/>
<path d="M329.262 84.7505H298.787C298.663 84.7505 298.563 84.8513 298.563 84.9757V87.1096C298.563 87.234 298.663 87.3348 298.787 87.3348H329.262C329.386 87.3348 329.487 87.234 329.487 87.1096V84.9757C329.487 84.8513 329.386 84.7505 329.262 84.7505Z" fill="white"/>
<path d="M329.262 90.2876H298.787C298.663 90.2876 298.563 90.3884 298.563 90.5128V92.6467C298.563 92.771 298.663 92.8719 298.787 92.8719H329.262C329.386 92.8719 329.487 92.771 329.487 92.6467V90.5128C329.487 90.3884 329.386 90.2876 329.262 90.2876Z" fill="white"/>
<path d="M329.262 95.8257H298.787C298.663 95.8257 298.563 95.9265 298.563 96.0509V98.1848C298.563 98.3092 298.663 98.41 298.787 98.41H329.262C329.386 98.41 329.487 98.3092 329.487 98.1848V96.0509C329.487 95.9265 329.386 95.8257 329.262 95.8257Z" fill="white"/>
<path d="M291.41 110.224H269.27C268.776 110.224 268.375 110.626 268.375 111.121V125.571C268.375 126.067 268.776 126.468 269.27 126.468H291.41C291.904 126.468 292.305 126.067 292.305 125.571V111.121C292.305 110.626 291.904 110.224 291.41 110.224Z" fill="white"/>
<path d="M329.262 110.224H298.787C298.663 110.224 298.563 110.325 298.563 110.449V112.583C298.563 112.708 298.663 112.808 298.787 112.808H329.262C329.386 112.808 329.487 112.708 329.487 112.583V110.449C329.487 110.325 329.386 110.224 329.262 110.224Z" fill="white"/>
<path d="M329.262 115.762H298.787C298.663 115.762 298.563 115.863 298.563 115.987V118.121C298.563 118.245 298.663 118.346 298.787 118.346H329.262C329.386 118.346 329.487 118.245 329.487 118.121V115.987C329.487 115.863 329.386 115.762 329.262 115.762Z" fill="white"/>
<path d="M329.244 121.3H298.806C298.672 121.3 298.563 121.409 298.563 121.543V123.64C298.563 123.775 298.672 123.884 298.806 123.884H329.244C329.378 123.884 329.487 123.775 329.487 123.64V121.543C329.487 121.409 329.378 121.3 329.244 121.3Z" fill="white"/>
<path d="M291.41 135.698H269.27C268.776 135.698 268.375 136.099 268.375 136.595V151.045C268.375 151.54 268.776 151.942 269.27 151.942H291.41C291.904 151.942 292.305 151.54 292.305 151.045V136.595C292.305 136.099 291.904 135.698 291.41 135.698Z" fill="white"/>
<path d="M329.244 135.698H298.806C298.672 135.698 298.563 135.807 298.563 135.941V138.038C298.563 138.173 298.672 138.282 298.806 138.282H329.244C329.378 138.282 329.487 138.173 329.487 138.038V135.941C329.487 135.807 329.378 135.698 329.244 135.698Z" fill="white"/>
<path d="M329.244 141.235H298.806C298.672 141.235 298.563 141.344 298.563 141.479V143.576C298.563 143.711 298.672 143.82 298.806 143.82H329.244C329.378 143.82 329.487 143.711 329.487 143.576V141.479C329.487 141.344 329.378 141.235 329.244 141.235Z" fill="white"/>
<path d="M329.244 146.773H298.806C298.672 146.773 298.563 146.883 298.563 147.017V149.114C298.563 149.249 298.672 149.358 298.806 149.358H329.244C329.378 149.358 329.487 149.249 329.487 149.114V147.017C329.487 146.883 329.378 146.773 329.244 146.773Z" fill="white"/>
<path d="M291.41 161.172H269.27C268.776 161.172 268.375 161.574 268.375 162.069V176.519C268.375 177.014 268.776 177.416 269.27 177.416H291.41C291.904 177.416 292.305 177.014 292.305 176.519V162.069C292.305 161.574 291.904 161.172 291.41 161.172Z" fill="white"/>
<path d="M329.244 161.172H298.806C298.672 161.172 298.563 161.281 298.563 161.416V163.513C298.563 163.647 298.672 163.756 298.806 163.756H329.244C329.378 163.756 329.487 163.647 329.487 163.513V161.416C329.487 161.281 329.378 161.172 329.244 161.172Z" fill="white"/>
<path d="M329.244 166.709H298.806C298.672 166.709 298.563 166.819 298.563 166.953V169.05C298.563 169.185 298.672 169.294 298.806 169.294H329.244C329.378 169.294 329.487 169.185 329.487 169.05V166.953C329.487 166.819 329.378 166.709 329.244 166.709Z" fill="white"/>
<path d="M329.244 172.247H298.806C298.672 172.247 298.563 172.356 298.563 172.491V174.588C298.563 174.722 298.672 174.831 298.806 174.831H329.244C329.378 174.831 329.487 174.722 329.487 174.588V172.491C329.487 172.356 329.378 172.247 329.244 172.247Z" fill="white"/>
<path d="M291.41 186.646H269.27C268.776 186.646 268.375 187.047 268.375 187.543V201.993C268.375 202.488 268.776 202.89 269.27 202.89H291.41C291.904 202.89 292.305 202.488 292.305 201.993V187.543C292.305 187.047 291.904 186.646 291.41 186.646Z" fill="white"/>
<path d="M329.244 186.646H298.806C298.672 186.646 298.563 186.755 298.563 186.889V188.986C298.563 189.121 298.672 189.23 298.806 189.23H329.244C329.378 189.23 329.487 189.121 329.487 188.986V186.889C329.487 186.755 329.378 186.646 329.244 186.646Z" fill="white"/>
<path d="M329.244 192.183H298.806C298.672 192.183 298.563 192.292 298.563 192.427V194.524C298.563 194.658 298.672 194.767 298.806 194.767H329.244C329.378 194.767 329.487 194.658 329.487 194.524V192.427C329.487 192.292 329.378 192.183 329.244 192.183Z" fill="white"/>
<path d="M329.244 197.721H298.806C298.672 197.721 298.563 197.83 298.563 197.965V200.062C298.563 200.196 298.672 200.305 298.806 200.305H329.244C329.378 200.305 329.487 200.196 329.487 200.062V197.965C329.487 197.83 329.378 197.721 329.244 197.721Z" fill="white"/>
<path opacity="0.1" d="M150.11 120.048H112.254V122.016H150.11V120.048Z" fill="#FFC107"/>
<path opacity="0.1" d="M119.263 109.645H115.619V120.048H119.263V109.645Z" fill="#FFC107"/>
<path opacity="0.1" d="M124.59 109.645H120.946V120.048H124.59V109.645Z" fill="#FFC107"/>
<path opacity="0.1" d="M129.917 109.645H126.273V120.048H129.917V109.645Z" fill="#FFC107"/>
<path opacity="0.1" d="M135.244 109.645H131.599V120.048H135.244V109.645Z" fill="#FFC107"/>
<path opacity="0.1" d="M140.571 109.645H136.927V120.048H140.571V109.645Z" fill="#FFC107"/>
<path opacity="0.1" d="M145.902 109.645H142.257V120.048H145.902V109.645Z" fill="#FFC107"/>
<path opacity="0.1" d="M119.263 111.612H115.619V112.738H119.263V111.612Z" fill="#FFC107"/>
<path opacity="0.1" d="M124.59 111.612H120.946V112.738H124.59V111.612Z" fill="#FFC107"/>
<path opacity="0.1" d="M129.917 111.612H126.273V112.738H129.917V111.612Z" fill="#FFC107"/>
<path opacity="0.1" d="M135.244 111.612H131.599V112.738H135.244V111.612Z" fill="#FFC107"/>
<path opacity="0.1" d="M140.571 111.612H136.927V112.738H140.571V111.612Z" fill="#FFC107"/>
<path opacity="0.1" d="M145.902 111.612H142.257V112.738H145.902V111.612Z" fill="#FFC107"/>
<path opacity="0.1" d="M119.263 116.674H115.619V117.8H119.263V116.674Z" fill="#FFC107"/>
<path opacity="0.1" d="M124.59 116.674H120.946V117.8H124.59V116.674Z" fill="#FFC107"/>
<path opacity="0.1" d="M129.917 116.674H126.273V117.8H129.917V116.674Z" fill="#FFC107"/>
<path opacity="0.1" d="M135.244 116.674H131.599V117.8H135.244V116.674Z" fill="#FFC107"/>
<path opacity="0.1" d="M140.571 116.674H136.927V117.8H140.571V116.674Z" fill="#FFC107"/>
<path opacity="0.1" d="M145.902 116.674H142.257V117.8H145.902V116.674Z" fill="#FFC107"/>
<path opacity="0.1" d="M233.107 125.11H195.251V127.078H233.107V125.11Z" fill="#FFC107"/>
<path opacity="0.1" d="M202.261 114.706H198.616V125.11H202.261V114.706Z" fill="#FFC107"/>
<path opacity="0.1" d="M207.588 114.706H203.943V125.11H207.588V114.706Z" fill="#FFC107"/>
<path opacity="0.1" d="M212.914 114.706H209.27V125.11H212.914V114.706Z" fill="#FFC107"/>
<path opacity="0.1" d="M218.245 114.706H214.601V125.11H218.245V114.706Z" fill="#FFC107"/>
<path opacity="0.1" d="M223.573 114.706H219.928V125.11H223.573V114.706Z" fill="#FFC107"/>
<path opacity="0.1" d="M228.899 114.706H225.255V125.11H228.899V114.706Z" fill="#FFC107"/>
<path opacity="0.1" d="M202.261 116.674H198.616V117.8H202.261V116.674Z" fill="#FFC107"/>
<path opacity="0.1" d="M207.588 116.674H203.943V117.8H207.588V116.674Z" fill="#FFC107"/>
<path opacity="0.1" d="M212.914 116.674H209.27V117.8H212.914V116.674Z" fill="#FFC107"/>
<path opacity="0.1" d="M218.245 116.674H214.601V117.8H218.245V116.674Z" fill="#FFC107"/>
<path opacity="0.1" d="M223.573 116.674H219.928V117.8H223.573V116.674Z" fill="#FFC107"/>
<path opacity="0.1" d="M228.899 116.674H225.255V117.8H228.899V116.674Z" fill="#FFC107"/>
<path opacity="0.1" d="M202.261 121.735H198.616V122.861H202.261V121.735Z" fill="#FFC107"/>
<path opacity="0.1" d="M207.588 121.735H203.943V122.861H207.588V121.735Z" fill="#FFC107"/>
<path opacity="0.1" d="M212.914 121.735H209.27V122.861H212.914V121.735Z" fill="#FFC107"/>
<path opacity="0.1" d="M218.245 121.735H214.601V122.861H218.245V121.735Z" fill="#FFC107"/>
<path opacity="0.1" d="M223.573 121.735H219.928V122.861H223.573V121.735Z" fill="#FFC107"/>
<path opacity="0.1" d="M228.899 121.735H225.255V122.861H228.899V121.735Z" fill="#FFC107"/>
<path opacity="0.1" d="M233.107 139.449H195.251V141.417H233.107V139.449Z" fill="#FFC107"/>
<path opacity="0.1" d="M202.261 129.045H198.616V139.449H202.261V129.045Z" fill="#FFC107"/>
<path opacity="0.1" d="M207.588 129.045H203.943V139.449H207.588V129.045Z" fill="#FFC107"/>
<path opacity="0.1" d="M212.914 129.045H209.27V139.449H212.914V129.045Z" fill="#FFC107"/>
<path opacity="0.1" d="M218.245 129.045H214.601V139.449H218.245V129.045Z" fill="#FFC107"/>
<path opacity="0.1" d="M223.573 129.045H219.928V139.449H223.573V129.045Z" fill="#FFC107"/>
<path opacity="0.1" d="M228.899 129.045H225.255V139.449H228.899V129.045Z" fill="#FFC107"/>
<path opacity="0.1" d="M202.261 131.013H198.616V132.139H202.261V131.013Z" fill="#FFC107"/>
<path opacity="0.1" d="M207.588 131.013H203.943V132.139H207.588V131.013Z" fill="#FFC107"/>
<path opacity="0.1" d="M212.914 131.013H209.27V132.139H212.914V131.013Z" fill="#FFC107"/>
<path opacity="0.1" d="M218.245 131.013H214.601V132.139H218.245V131.013Z" fill="#FFC107"/>
<path opacity="0.1" d="M223.573 131.013H219.928V132.139H223.573V131.013Z" fill="#FFC107"/>
<path opacity="0.1" d="M228.899 131.013H225.255V132.139H228.899V131.013Z" fill="#FFC107"/>
<path opacity="0.1" d="M202.261 136.074H198.616V137.2H202.261V136.074Z" fill="#FFC107"/>
<path opacity="0.1" d="M207.588 136.074H203.943V137.2H207.588V136.074Z" fill="#FFC107"/>
<path opacity="0.1" d="M212.914 136.074H209.27V137.2H212.914V136.074Z" fill="#FFC107"/>
<path opacity="0.1" d="M218.245 136.074H214.601V137.2H218.245V136.074Z" fill="#FFC107"/>
<path opacity="0.1" d="M223.573 136.074H219.928V137.2H223.573V136.074Z" fill="#FFC107"/>
<path opacity="0.1" d="M228.899 136.074H225.255V137.2H228.899V136.074Z" fill="#FFC107"/>
<path opacity="0.1" d="M135.476 142.299C135.194 141.936 134.935 141.555 134.703 141.158L140.155 140.261L134.265 140.305C133.7 139.072 133.391 137.735 133.358 136.378C133.326 135.021 133.569 133.672 134.073 132.412L141.97 136.517L134.677 131.142C135.356 129.948 136.273 128.908 137.371 128.087C138.47 127.265 139.726 126.681 141.06 126.369C142.395 126.058 143.779 126.026 145.126 126.277C146.473 126.528 147.754 127.055 148.888 127.826C150.023 128.597 150.986 129.594 151.717 130.756C152.449 131.918 152.933 133.219 153.139 134.577C153.346 135.936 153.27 137.322 152.916 138.65C152.563 139.977 151.939 141.217 151.085 142.291C151.529 142.853 151.909 143.462 152.219 144.108L145.143 147.8L152.687 145.263C153.214 146.832 153.344 148.507 153.065 150.139C152.785 151.77 152.105 153.306 151.085 154.607C152.241 156.077 152.961 157.843 153.162 159.704C153.364 161.565 153.039 163.445 152.224 165.129C151.41 166.814 150.139 168.234 148.557 169.228C146.976 170.221 145.147 170.748 143.281 170.748C141.414 170.748 139.585 170.221 138.004 169.228C136.422 168.234 135.151 166.814 134.337 165.129C133.522 163.445 133.197 161.565 133.399 159.704C133.6 157.843 134.32 156.077 135.476 154.607C134.099 152.851 133.351 150.682 133.351 148.448C133.351 146.213 134.099 144.044 135.476 142.288V142.299Z" fill="#FFC107"/>
<path opacity="0.1" d="M153.213 148.457C153.213 150.689 152.464 152.856 151.085 154.608C152.241 156.077 152.961 157.844 153.162 159.704C153.364 161.565 153.039 163.445 152.224 165.13C151.41 166.814 150.139 168.234 148.557 169.228C146.976 170.221 145.147 170.748 143.281 170.748C141.414 170.748 139.585 170.221 138.004 169.228C136.422 168.234 135.151 166.814 134.337 165.13C133.522 163.445 133.197 161.565 133.399 159.704C133.6 157.844 134.32 156.077 135.476 154.608C134.14 152.92 153.213 147.338 153.213 148.457Z" fill="#FFC107"/>
<path opacity="0.2" d="M144.871 173.392C144.888 173.418 144.904 173.445 144.919 173.473H141.547C141.565 173.447 141.576 173.418 141.595 173.392C141.304 172.886 141.154 172.311 141.16 171.727C141.159 171.327 141.227 170.929 141.363 170.553C141.551 170.582 141.782 170.615 142.051 170.645C142.833 170.723 143.621 170.723 144.404 170.645C144.629 170.623 144.861 170.593 145.099 170.556C145.098 170.562 145.098 170.569 145.099 170.575C145.233 170.945 145.301 171.336 145.298 171.73C145.306 172.312 145.158 172.886 144.871 173.392Z" fill="#3F3D56"/>
<path opacity="0.1" d="M132.752 173.473H113.977C113.936 173.366 113.9 173.251 113.866 173.141C113.205 171.007 113.281 168.712 114.084 166.628C112.251 165.357 110.897 163.506 110.239 161.371C109.582 159.236 109.658 156.941 110.457 154.855C110.08 154.594 109.722 154.307 109.386 153.995L114.327 151.525L108.709 153.312C107.805 152.301 107.117 151.116 106.687 149.829C106.257 148.542 106.093 147.181 106.205 145.828L114.971 147.416L106.423 144.436C106.717 143.093 107.286 141.825 108.094 140.713C108.901 139.601 109.929 138.669 111.113 137.974C112.297 137.28 113.612 136.839 114.974 136.679C116.336 136.519 117.717 136.644 119.029 137.045C120.341 137.446 121.556 138.115 122.598 139.01C123.639 139.905 124.485 141.007 125.081 142.245C125.678 143.484 126.012 144.833 126.063 146.208C126.114 147.582 125.881 148.953 125.378 150.233C125.971 150.646 126.518 151.123 127.009 151.654L121.332 157.269L127.793 152.61C128.761 153.954 129.38 155.518 129.594 157.162C129.807 158.806 129.608 160.477 129.015 162.024C130.798 163.263 132.129 165.052 132.803 167.119C133.478 169.185 133.46 171.417 132.752 173.473Z" fill="#FFC107"/>
<path opacity="0.1" d="M132.752 173.473H113.977C113.936 173.366 113.9 173.252 113.866 173.141C113.205 171.008 113.282 168.713 114.084 166.629C112.317 165.403 128.894 154.42 129.222 155.49C129.883 157.625 129.807 159.921 129.004 162.006C130.793 163.244 132.128 165.036 132.805 167.107C133.482 169.178 133.463 171.414 132.752 173.473Z" fill="#FFC107"/>
<path opacity="0.1" d="M217.701 159.983C216.56 161.902 214.808 163.379 212.727 164.177C212.816 164.887 212.83 165.605 212.768 166.318L204.812 165.838L212.583 167.529C212.355 168.591 211.954 169.609 211.398 170.541C210.721 171.684 209.819 172.676 208.747 173.458H197.917V173.742H186.872C186.895 173.646 186.917 173.554 186.942 173.458C187.345 171.93 188.105 170.521 189.158 169.346C190.21 168.17 191.527 167.263 192.998 166.698C192.716 164.482 193.184 162.235 194.327 160.317C195.471 158.4 197.224 156.923 199.305 156.125C199.246 155.668 199.219 155.208 199.224 154.748L204.359 156.782L199.279 153.788C199.429 152.438 199.852 151.134 200.522 149.954C201.192 148.775 202.096 147.745 203.177 146.928L207.857 154.526L204.348 146.16C206.259 145.1 208.465 144.7 210.626 145.023C212.786 145.346 214.78 146.373 216.3 147.946C217.82 149.52 218.78 151.551 219.033 153.727C219.287 155.902 218.818 158.101 217.701 159.983Z" fill="#FFC107"/>
<path opacity="0.1" d="M211.398 170.556C210.721 171.698 209.819 172.691 208.747 173.473H197.917V173.757H186.872C186.895 173.661 186.917 173.569 186.942 173.473C187.345 171.945 188.105 170.536 189.158 169.361C190.21 168.185 191.527 167.278 192.998 166.713C192.906 165.975 195.045 166.085 197.898 166.565C203.49 167.507 211.777 169.921 211.398 170.556Z" fill="#FFC107"/>
<path d="M164.452 143.971C164.452 143.971 165.815 151.355 162.774 153.766C159.733 156.177 165.351 170.627 174.621 168.939C183.89 167.252 187.668 155.132 187.668 155.132C187.668 155.132 178.383 153.205 181.825 143.41L164.452 143.971Z" fill="#EE8E9E"/>
<path opacity="0.1" d="M164.452 143.971C164.452 143.971 165.815 151.355 162.774 153.766C159.733 156.177 165.351 170.627 174.621 168.939C183.89 167.252 187.668 155.132 187.668 155.132C187.668 155.132 178.383 153.205 181.825 143.41L164.452 143.971Z" fill="black"/>
<path d="M172.658 149.391C181.147 149.391 188.028 142.49 188.028 133.977C188.028 125.465 181.147 118.564 172.658 118.564C164.17 118.564 157.289 125.465 157.289 133.977C157.289 142.49 164.17 149.391 172.658 149.391Z" fill="#EE8E9E"/>
<path d="M197.916 163.28V173.757H147.165V163.756C147.164 162.488 147.537 161.248 148.236 160.191C148.934 159.133 149.928 158.306 151.093 157.812L152.547 157.192C156.228 155.619 160.701 153.666 162.163 152.854C162.323 152.774 162.473 152.676 162.612 152.562C163.411 151.761 163.252 152.802 163.252 152.802C163.252 152.802 163.23 153.002 163.216 153.345C163.127 155.704 163.466 164.974 174.3 164.203C184.87 163.464 185.344 156.295 185.238 154.187C185.232 153.992 185.216 153.797 185.19 153.603C185.921 153.778 186.636 154.012 187.329 154.305C189.538 155.124 192.799 156.439 193.672 157.059C193.944 157.251 194.276 157.45 194.636 157.653C195.046 157.882 195.428 158.156 195.778 158.469C196.451 159.076 196.989 159.817 197.358 160.646C197.726 161.475 197.917 162.372 197.916 163.28Z" fill="#FFC107"/>
<path opacity="0.1" d="M187.329 154.305C186.434 158.462 183.625 166.248 173.502 166.451C162.715 166.665 162.089 155.907 162.159 152.854C162.322 152.776 162.474 152.678 162.612 152.562C163.414 151.761 163.252 152.802 163.252 152.802C163.252 152.802 161.894 165.085 174.297 164.203C186.699 163.32 185.175 153.607 185.175 153.607C185.175 153.548 186.099 153.869 187.329 154.305Z" fill="black"/>
<path d="M154.465 134.749C154.975 134.621 155.512 134.649 156.006 134.83C156.5 135.011 156.929 135.336 157.237 135.764C157.796 136.55 157.881 137.499 157.951 138.407C158.617 138.548 158.993 137.791 159.055 137.219C159.302 134.889 159.32 132.515 160.101 130.263C160.881 128.011 162.586 125.833 165.203 124.973C166.098 124.662 167.053 124.571 167.99 124.707C168.546 124.799 169.069 124.995 169.621 125.076C171.535 125.394 173.615 124.485 175.408 125.117C176.535 125.515 177.249 126.435 177.775 127.354C178.004 127.85 178.316 128.303 178.696 128.694C179.458 129.381 180.651 129.558 181.744 129.772C182.837 129.986 184.03 130.359 184.498 131.205C184.917 131.969 184.608 132.851 184.468 133.678C184.252 134.988 184.47 136.333 185.09 137.507C185.293 137.876 185.705 138.322 186.195 138.201C186.414 138.126 186.599 137.976 186.718 137.776C187.973 136.011 187.94 133.715 189.515 132.124C190.042 131.592 190.723 131.179 191.235 130.647C191.622 130.253 191.906 129.769 192.061 129.238C192.217 128.708 192.239 128.146 192.126 127.605C191.842 126.387 190.87 125.39 190.086 124.319C189.068 122.963 188.326 121.419 187.903 119.775C187.829 119.583 187.829 119.371 187.903 119.18C188.052 118.986 188.243 118.83 188.463 118.722C188.889 118.436 189.197 118.003 189.329 117.504C189.46 117.006 189.406 116.477 189.177 116.016C188.731 115.104 187.752 114.41 186.648 113.997C185.527 113.628 184.371 113.38 183.198 113.259C182.425 113.369 181.519 112.93 181.28 112.31C181.173 112.033 181.173 111.734 181.067 111.457C180.922 111.179 180.712 110.94 180.456 110.76C180.2 110.58 179.904 110.464 179.594 110.423C178.936 110.316 178.261 110.364 177.624 110.563C176.888 110.77 176.052 111.08 175.416 110.719C175.081 110.53 174.897 110.187 174.536 110.032C173.799 109.722 173.041 110.349 172.515 110.866C172.007 111.408 171.384 111.829 170.692 112.096C170.327 112.235 169.936 112.294 169.546 112.268C169.155 112.242 168.776 112.131 168.432 111.944C167.928 111.623 167.674 111.106 167.272 110.696C166.514 110.019 165.544 109.627 164.53 109.589C163.486 109.533 162.44 109.648 161.434 109.928C159.512 110.398 157.676 111.171 155.996 112.217C155.151 112.683 154.434 113.352 153.909 114.163C153.598 114.785 153.438 115.472 153.441 116.168C153.36 118.35 154.082 120.646 155.963 122.174C154.814 122.654 154.428 123.832 154.159 124.877C153.728 126.545 153.298 128.24 153.46 129.938C153.541 130.817 153.78 131.696 153.651 132.571C153.548 132.983 153.491 133.405 153.482 133.829C153.536 134.063 153.658 134.276 153.833 134.44C154.008 134.603 154.228 134.711 154.465 134.749Z" fill="#454B69"/>
<g opacity="0.1">
<path opacity="0.1" d="M191.887 126.919C191.722 127.281 191.498 127.613 191.224 127.901C190.713 128.44 190.032 128.857 189.505 129.378C187.929 130.958 187.963 133.269 186.707 135.034C186.59 135.233 186.404 135.383 186.184 135.455C185.706 135.58 185.294 135.144 185.08 134.76C184.837 134.293 184.652 133.797 184.531 133.284C184.506 133.413 184.48 133.542 184.458 133.653C184.241 134.963 184.46 136.308 185.08 137.481C185.282 137.851 185.695 138.297 186.184 138.175C186.404 138.101 186.589 137.95 186.707 137.751C187.963 135.986 187.929 133.69 189.505 132.099C190.032 131.567 190.713 131.153 191.224 130.622C191.612 130.228 191.896 129.744 192.051 129.213C192.207 128.682 192.229 128.121 192.115 127.58C192.059 127.353 191.982 127.132 191.887 126.919Z" fill="black"/>
<path opacity="0.1" d="M188.455 115.991C188.235 116.097 188.043 116.254 187.896 116.448C187.822 116.638 187.822 116.849 187.896 117.039C188.041 117.613 188.227 118.175 188.452 118.723C188.878 118.436 189.186 118.003 189.318 117.505C189.449 117.007 189.395 116.477 189.166 116.016C189.094 115.864 189.008 115.72 188.908 115.584C188.777 115.741 188.625 115.878 188.455 115.991Z" fill="black"/>
<path opacity="0.1" d="M155.984 119.413C154.68 118.335 153.821 116.811 153.573 115.134C153.507 115.465 153.47 115.801 153.462 116.138C153.378 117.751 153.802 119.348 154.674 120.705C154.937 120.128 155.404 119.668 155.984 119.413Z" fill="black"/>
<path opacity="0.1" d="M184.469 130.958C184.609 130.127 184.918 129.245 184.498 128.484C184.031 127.635 182.838 127.266 181.745 127.052C180.651 126.837 179.458 126.657 178.696 125.974C178.316 125.582 178.005 125.129 177.776 124.633C177.257 123.714 176.535 122.788 175.409 122.396C173.616 121.765 171.536 122.669 169.622 122.356C169.069 122.263 168.547 122.071 167.991 121.986C167.054 121.849 166.098 121.94 165.204 122.252C162.586 123.116 160.882 125.294 160.102 127.543C159.321 129.791 159.303 132.165 159.056 134.498C158.993 135.067 158.618 135.827 157.952 135.687C157.882 134.775 157.797 133.841 157.237 133.04C156.929 132.613 156.5 132.288 156.006 132.108C155.512 131.928 154.975 131.9 154.465 132.028C154.156 131.959 153.881 131.782 153.689 131.53C153.729 131.868 153.729 132.21 153.689 132.549C153.585 132.961 153.528 133.383 153.519 133.808C153.567 134.044 153.683 134.261 153.855 134.43C154.026 134.599 154.244 134.713 154.48 134.757C154.99 134.629 155.527 134.657 156.021 134.838C156.515 135.019 156.944 135.344 157.252 135.772C157.812 136.558 157.896 137.507 157.966 138.415C158.633 138.555 159.008 137.799 159.071 137.226C159.317 134.897 159.336 132.523 160.116 130.271C160.897 128.019 162.601 125.841 165.219 124.98C166.113 124.67 167.069 124.579 168.006 124.715C168.561 124.807 169.084 125.003 169.636 125.084C171.551 125.401 173.631 124.493 175.424 125.124C176.55 125.523 177.264 126.442 177.791 127.362C178.02 127.857 178.331 128.311 178.711 128.702C179.473 129.389 180.666 129.566 181.759 129.78C182.853 129.994 183.968 130.341 184.458 131.124C184.439 131.068 184.458 131.013 184.469 130.958Z" fill="black"/>
<path opacity="0.1" d="M153.673 129.809C153.734 129.122 153.693 128.429 153.552 127.753C153.444 128.466 153.421 129.19 153.482 129.909C153.482 130.094 153.523 130.278 153.548 130.459C153.589 130.241 153.644 130.027 153.673 129.809Z" fill="black"/>
</g>
<path d="M135.656 188.654V181.99C135.656 181.94 135.676 181.892 135.711 181.857C135.746 181.822 135.794 181.802 135.844 181.802H136.599C136.648 181.802 136.696 181.822 136.731 181.857C136.767 181.892 136.786 181.94 136.786 181.99V184.763L139.849 181.916C139.921 181.856 140.009 181.817 140.102 181.804C140.195 181.792 140.289 181.805 140.375 181.844C140.46 181.882 140.533 181.944 140.586 182.022C140.638 182.1 140.667 182.191 140.67 182.285V188.322C140.667 188.416 140.638 188.507 140.586 188.585C140.533 188.663 140.46 188.725 140.375 188.763C140.289 188.802 140.195 188.815 140.102 188.802C140.009 188.79 139.921 188.751 139.849 188.691L136.786 185.863V188.621C136.786 188.671 136.767 188.718 136.731 188.754C136.696 188.789 136.648 188.809 136.599 188.809H135.844C135.799 188.81 135.756 188.794 135.722 188.766C135.687 188.738 135.664 188.698 135.656 188.654Z" fill="#444053"/>
<path d="M209.664 181.99V188.654C209.664 188.679 209.659 188.704 209.649 188.727C209.639 188.75 209.625 188.771 209.607 188.788C209.59 188.806 209.568 188.82 209.545 188.829C209.522 188.838 209.497 188.843 209.472 188.842H208.736C208.686 188.842 208.638 188.822 208.603 188.787C208.568 188.752 208.548 188.704 208.548 188.654V185.881L205.485 188.724C205.413 188.784 205.325 188.822 205.232 188.835C205.139 188.848 205.045 188.834 204.959 188.796C204.873 188.757 204.8 188.696 204.747 188.618C204.695 188.54 204.665 188.449 204.661 188.355V182.297C204.665 182.203 204.695 182.112 204.747 182.034C204.8 181.956 204.873 181.894 204.959 181.856C205.045 181.818 205.139 181.804 205.232 181.817C205.325 181.829 205.413 181.868 205.485 181.927L208.548 184.755V182.001C208.548 181.951 208.568 181.903 208.603 181.868C208.638 181.833 208.686 181.813 208.736 181.813H209.472C209.521 181.812 209.568 181.83 209.604 181.863C209.639 181.896 209.661 181.942 209.664 181.99Z" fill="#444053"/>
<path d="M171.41 188.942H169.912C169.717 188.942 169.529 188.864 169.391 188.725C169.253 188.587 169.176 188.399 169.176 188.203V182.688C169.176 182.492 169.253 182.304 169.391 182.165C169.529 182.027 169.717 181.949 169.912 181.949H171.41C171.606 181.949 171.793 182.027 171.931 182.165C172.069 182.304 172.147 182.492 172.147 182.688V188.203C172.147 188.399 172.069 188.587 171.931 188.725C171.793 188.864 171.606 188.942 171.41 188.942ZM176.159 188.203V182.688C176.159 182.492 176.082 182.304 175.944 182.165C175.806 182.027 175.618 181.949 175.423 181.949H173.91C173.715 181.949 173.527 182.027 173.389 182.165C173.251 182.304 173.174 182.492 173.174 182.688V188.203C173.174 188.399 173.251 188.587 173.389 188.725C173.527 188.864 173.715 188.942 173.91 188.942H175.408C175.506 188.944 175.604 188.926 175.695 188.89C175.786 188.853 175.869 188.799 175.939 188.731C176.008 188.662 176.064 188.58 176.102 188.489C176.14 188.399 176.159 188.301 176.159 188.203Z" fill="#444053"/>
<path opacity="0.6" d="M216.835 173.008H128.481V173.994H216.835V173.008Z" fill="#444053"/>
<path d="M155.765 175.836C157.052 175.836 158.095 174.789 158.095 173.499C158.095 172.208 157.052 171.162 155.765 171.162C154.478 171.162 153.434 172.208 153.434 173.499C153.434 174.789 154.478 175.836 155.765 175.836Z" fill="#444053"/>
<path d="M155.764 173.008H128.481V173.994H155.764V173.008Z" fill="#444053"/>
<path d="M352.341 284.265C364.433 284.265 374.234 282.374 374.234 280.042C374.234 277.709 364.433 275.818 352.341 275.818C340.25 275.818 330.448 277.709 330.448 280.042C330.448 282.374 340.25 284.265 352.341 284.265Z" fill="#FFC107"/>
<path d="M351.977 281.592C353.384 281.592 354.524 280.095 354.524 278.248C354.524 276.4 353.384 274.903 351.977 274.903C350.57 274.903 349.429 276.4 349.429 278.248C349.429 280.095 350.57 281.592 351.977 281.592Z" fill="#3F3D56"/>
<path d="M351.977 277.502C353.384 277.502 354.524 276.005 354.524 274.157C354.524 272.31 353.384 270.812 351.977 270.812C350.57 270.812 349.429 272.31 349.429 274.157C349.429 276.005 350.57 277.502 351.977 277.502Z" fill="#3F3D56"/>
<path d="M351.977 273.415C353.384 273.415 354.524 271.918 354.524 270.07C354.524 268.223 353.384 266.726 351.977 266.726C350.57 266.726 349.429 268.223 349.429 270.07C349.429 271.918 350.57 273.415 351.977 273.415Z" fill="#3F3D56"/>
<path d="M351.977 269.324C353.384 269.324 354.524 267.827 354.524 265.98C354.524 264.132 353.384 262.635 351.977 262.635C350.57 262.635 349.429 264.132 349.429 265.98C349.429 267.827 350.57 269.324 351.977 269.324Z" fill="#3F3D56"/>
<path d="M351.977 265.234C353.384 265.234 354.524 263.737 354.524 261.889C354.524 260.042 353.384 258.544 351.977 258.544C350.57 258.544 349.429 260.042 349.429 261.889C349.429 263.737 350.57 265.234 351.977 265.234Z" fill="#3F3D56"/>
<path d="M351.977 261.143C353.384 261.143 354.524 259.646 354.524 257.798C354.524 255.951 353.384 254.454 351.977 254.454C350.57 254.454 349.429 255.951 349.429 257.798C349.429 259.646 350.57 261.143 351.977 261.143Z" fill="#3F3D56"/>
<path d="M351.977 257.053C353.384 257.053 354.524 255.555 354.524 253.708C354.524 251.861 353.384 250.363 351.977 250.363C350.57 250.363 349.429 251.861 349.429 253.708C349.429 255.555 350.57 257.053 351.977 257.053Z" fill="#3F3D56"/>
<path d="M361.515 225.724C361.862 225.278 362.18 224.809 362.465 224.321L355.764 223.213L363.009 223.269C363.703 221.752 364.082 220.109 364.121 218.441C364.161 216.773 363.862 215.115 363.241 213.566L353.53 218.624L362.49 212.019C361.651 210.564 360.521 209.297 359.172 208.299C357.823 207.3 356.284 206.591 354.649 206.215C353.015 205.839 351.321 205.804 349.673 206.114C348.025 206.423 346.458 207.07 345.07 208.013C343.682 208.956 342.502 210.176 341.605 211.597C340.707 213.017 340.111 214.607 339.854 216.269C339.596 217.931 339.682 219.628 340.107 221.254C340.532 222.881 341.287 224.402 342.324 225.724C341.784 226.411 341.317 227.154 340.932 227.939L349.627 232.469L340.358 229.349C339.707 231.278 339.546 233.34 339.889 235.347C340.232 237.354 341.069 239.244 342.324 240.845C340.908 242.651 340.028 244.82 339.783 247.104C339.539 249.388 339.94 251.695 340.941 253.761C341.942 255.827 343.503 257.569 345.444 258.788C347.386 260.007 349.63 260.653 351.921 260.653C354.212 260.653 356.456 260.007 358.398 258.788C360.339 257.569 361.9 255.827 362.901 253.761C363.902 251.695 364.303 249.388 364.059 247.104C363.814 244.82 362.934 242.651 361.518 240.845C363.21 238.687 364.129 236.022 364.129 233.277C364.129 230.532 363.21 227.867 361.518 225.709L361.515 225.724Z" fill="#FFC107"/>
<path opacity="0.1" d="M339.714 233.292C339.709 236.038 340.628 238.705 342.324 240.86C340.908 242.666 340.028 244.835 339.784 247.119C339.539 249.403 339.94 251.71 340.941 253.776C341.943 255.842 343.503 257.584 345.445 258.803C347.386 260.022 349.631 260.668 351.921 260.668C354.212 260.668 356.456 260.022 358.398 258.803C360.34 257.584 361.9 255.842 362.901 253.776C363.903 251.71 364.304 249.403 364.059 247.119C363.815 244.835 362.934 242.666 361.519 240.86C363.153 238.782 339.714 231.919 339.714 233.292Z" fill="black"/>
<path opacity="0.1" d="M106.761 307C126.89 307 143.207 303.529 143.207 299.247C143.207 294.965 126.89 291.494 106.761 291.494C86.6326 291.494 70.3151 294.965 70.3151 299.247C70.3151 303.529 86.6326 307 106.761 307Z" fill="#FFC107"/>
<path d="M118.965 298.347C118.229 298.077 117.441 298.121 116.671 298.036C115.074 297.851 113.586 297.128 112.452 295.984C111.723 295.244 111.15 294.366 110.766 293.399C111.009 293.488 111.252 293.58 111.503 293.68C110.766 291.956 111.54 290.021 112.217 288.279C113.365 285.325 114.452 282.356 115.475 279.37C118.052 271.806 120.261 263.938 120.213 255.89C120.213 252.981 119.679 250.231 119.576 247.325C119.499 245.169 119.83 243.017 119.815 240.857C119.815 240.554 119.815 240.255 119.793 239.952C120.452 239.374 120.969 238.652 121.306 237.842C121.642 237.032 121.788 236.155 121.733 235.279C121.696 234.822 121.631 234.368 121.538 233.92C121.408 233.141 121.236 232.369 121.023 231.609C120.78 230.808 120.449 230.04 120.165 229.257C119.617 227.74 119.245 226.16 118.777 224.616C118.95 224.634 119.12 224.68 119.278 224.753C119.16 224.614 119.079 224.448 119.042 224.269C118.767 223.287 118.619 222.273 118.6 221.253L118.913 221.113C119.054 220.117 119.003 219.103 118.762 218.126C118.939 216.542 119.215 214.948 119.385 213.371C119.447 212.78 119.421 212.038 118.88 211.894C118.77 211.049 118.726 210.192 118.681 209.34C118.527 206.364 118.373 203.39 118.221 200.416C118.067 197.43 117.912 194.447 117.853 191.456C117.813 189.559 117.791 187.595 117.341 185.778C117.419 184.908 117.33 184.031 117.08 183.194C116.395 181.019 114.267 179.295 112.11 179.417C111.467 178.494 110.671 177.687 109.758 177.032C110.188 176.065 110.704 175.068 111.127 174.285C114.58 173.159 117.106 169.744 117.106 165.683C117.111 164.197 116.764 162.73 116.093 161.404C116.157 161.242 116.211 161.075 116.255 160.906C116.44 160.109 116.383 159.274 116.09 158.51C115.986 158.217 115.863 157.931 115.722 157.654C115.626 157.469 115.523 157.284 115.416 157.107L115.228 156.823C115.114 156.649 114.996 156.483 114.86 156.321C114.599 155.969 114.318 155.631 114.021 155.309C113.654 154.911 113.25 154.55 112.813 154.231C112.221 153.79 111.544 153.477 110.825 153.312C110.41 153.23 109.986 153.191 109.563 153.197C109.309 153.197 109.051 153.197 108.797 153.22C108.281 153.249 107.77 153.286 107.258 153.282C107.089 153.282 106.916 153.282 106.746 153.257C105.845 153.136 104.955 152.95 104.081 152.699L103.639 152.607C103.488 152.577 103.341 152.551 103.19 152.533C102.786 152.479 102.379 152.454 101.972 152.459H101.563C101.155 152.479 100.748 152.521 100.344 152.585L99.9394 152.647C98.9168 152.808 97.9201 153.105 96.9758 153.53C96.8543 153.585 96.7292 153.648 96.6077 153.714L96.5341 153.755C96.4347 153.807 96.3353 153.862 96.2396 153.921L96.1843 153.954L95.8714 154.154L95.8456 154.172C92.9226 156.144 91.196 159.88 90.7579 163.586C90.2683 167.747 91.1261 171.941 91.9838 176.035L92.7569 179.727C92.7901 179.893 92.8269 180.056 92.86 180.222C91.7729 181.116 90.9368 182.279 90.434 183.596C89.6977 185.442 89.6793 187.439 89.7382 189.44C89.7382 189.847 89.7603 190.253 89.8008 190.659C89.7087 191.427 89.6277 192.198 89.5762 192.974C89.3443 196.555 89.7787 200.154 89.6645 203.743C89.5762 206.508 89.1602 209.281 89.3627 212.027C89.5394 214.464 90.191 216.827 90.8352 219.178L91.763 222.531C91.793 222.704 91.8737 222.865 91.9949 222.992C92.1472 223.095 92.3336 223.133 92.514 223.099C91.9105 224.474 91.4061 225.89 91.0046 227.337C90.7272 228.224 90.5446 229.137 90.4597 230.062C90.3382 231.753 90.7285 233.433 91.1187 235.076C91.7077 237.537 92.2943 240.008 92.8784 242.489C93.2907 244.224 93.7018 245.958 94.1117 247.691C94.9216 251.109 95.7352 254.55 95.8861 258.068C95.9703 259.835 95.8467 261.606 95.518 263.344C94.4559 268.549 94.3014 273.899 95.0615 279.156C95.6759 283.592 96.6724 287.966 98.0398 292.229C98.338 292.07 98.6398 291.923 98.9491 291.786L98.8202 292.026C98.3956 292.764 98.0029 293.521 97.6422 294.297C97.399 294.8 97.1887 295.32 97.0126 295.851C96.5414 297.328 96.4678 298.9 96.4015 300.455C96.3678 300.753 96.3941 301.056 96.4788 301.344C96.6813 301.902 97.263 302.186 97.8042 302.341C99.3945 302.795 101.047 302.633 102.7 302.419C102.708 302.455 102.719 302.491 102.734 302.526C102.936 303.083 103.514 303.367 104.059 303.523C106.334 304.172 108.734 303.559 111.079 303.338C113.424 303.116 115.729 303.279 117.986 302.736C118.322 302.664 118.645 302.54 118.943 302.367C119.523 301.96 119.949 301.368 120.15 300.687C120.221 300.511 120.268 300.326 120.29 300.137C120.382 299.329 119.694 298.616 118.965 298.347ZM111.179 264.156C111.052 265.021 110.804 265.864 110.442 266.659C108.672 270.436 107.402 274.429 106.665 278.536C106.182 281.249 105.903 283.995 105.83 286.75C105.793 288.781 105.87 290.907 105.027 292.731L105.333 292.683C105.237 292.86 105.145 293.052 105.057 293.193L105.012 293.274C104.502 292.403 104.161 291.444 104.007 290.446C104.007 290.413 103.842 290.387 103.588 290.372C102.547 284.54 102.186 278.607 102.513 272.692C102.518 271.974 102.617 271.261 102.807 270.569C102.995 269.975 103.312 269.432 103.543 268.856C103.911 267.888 104.159 266.879 104.28 265.851C104.681 263.223 104.836 260.563 104.744 257.906C104.655 255.399 105.233 252.907 105.727 250.411C105.962 249.226 106.179 248.038 106.297 246.849L106.319 246.609C108.51 250.233 110.04 254.218 110.84 258.379C111.285 260.27 111.399 262.225 111.179 264.156ZM95.4223 210.802L95.5401 210.905C95.8959 211.219 96.2236 211.564 96.5193 211.935C96.6665 212.097 96.7726 212.292 96.8286 212.504C96.939 213.043 96.4936 213.5 96.1291 213.895C95.9707 214.067 95.822 214.246 95.6837 214.434C95.6051 213.223 95.5217 212.012 95.4333 210.802H95.4223Z" fill="url(#paint0_linear)"/>
<path d="M90.3271 187.661L89.9222 190.795C89.786 191.858 89.6498 192.918 89.5761 193.985C89.3295 197.536 89.786 201.103 89.6682 204.662C89.5725 207.401 89.1381 210.137 89.3479 212.872C89.5357 215.287 90.2204 217.635 90.9051 219.961L91.877 223.283C91.9103 223.457 91.9949 223.617 92.12 223.741C92.3073 223.852 92.5297 223.888 92.7422 223.841L97.0568 223.449C96.7807 222.179 96.4751 220.865 96.3205 219.562C96.2027 218.543 96.1327 217.517 96.0591 216.49C95.8309 213.293 95.5695 210.096 95.3228 206.891L94.8627 201.28C94.6675 198.843 94.4651 196.396 93.854 194.029C93.2407 191.639 92.0265 189.446 90.3271 187.661Z" fill="#FFC107"/>
<path opacity="0.1" d="M90.3271 187.661L89.9222 190.795C89.786 191.858 89.6498 192.918 89.5761 193.985C89.3295 197.536 89.786 201.103 89.6682 204.662C89.5725 207.401 89.1381 210.137 89.3479 212.872C89.5357 215.287 90.2204 217.635 90.9051 219.961L91.877 223.283C91.9103 223.457 91.9949 223.617 92.12 223.741C92.3073 223.852 92.5297 223.888 92.7422 223.841L97.0568 223.449C96.7807 222.179 96.4751 220.865 96.3205 219.562C96.2027 218.543 96.1327 217.517 96.0591 216.49C95.8309 213.293 95.5695 210.096 95.3228 206.891L94.8627 201.28C94.6675 198.843 94.4651 196.396 93.854 194.029C93.2407 191.639 92.0265 189.446 90.3271 187.661Z" fill="black"/>
<path d="M98.0139 294.363C97.7606 294.862 97.5393 295.378 97.3513 295.906C96.8579 297.364 96.7843 298.929 96.7107 300.469C96.6782 300.766 96.7057 301.066 96.7917 301.351C97.0052 301.905 97.6163 302.186 98.1869 302.337C100.576 302.983 103.094 302.378 105.55 302.156C108.005 301.935 110.431 302.097 112.802 301.562C113.152 301.494 113.491 301.376 113.807 301.211C114.407 300.819 114.856 300.233 115.077 299.55C115.149 299.375 115.197 299.191 115.221 299.003C115.298 298.191 114.595 297.49 113.829 297.224C113.064 296.958 112.228 296.999 111.422 296.917C109.761 296.747 108.203 296.032 106.989 294.883C105.775 293.735 104.973 292.216 104.707 290.564C104.677 290.386 100.716 290.494 100.289 290.722C99.8031 290.992 99.5086 291.66 99.2325 292.114C98.798 292.845 98.3919 293.595 98.0139 294.363Z" fill="#A26565"/>
<path opacity="0.1" d="M98.0139 294.363C97.7606 294.862 97.5393 295.378 97.3513 295.906C96.8579 297.364 96.7843 298.929 96.7107 300.469C96.6782 300.766 96.7057 301.066 96.7917 301.351C97.0052 301.905 97.6163 302.186 98.1869 302.337C100.576 302.983 103.094 302.378 105.55 302.156C108.005 301.935 110.431 302.097 112.802 301.562C113.152 301.494 113.491 301.376 113.807 301.211C114.407 300.819 114.856 300.233 115.077 299.55C115.149 299.375 115.197 299.191 115.221 299.003C115.298 298.191 114.595 297.49 113.829 297.224C113.064 296.958 112.228 296.999 111.422 296.917C109.761 296.747 108.203 296.032 106.989 294.883C105.775 293.735 104.973 292.216 104.707 290.564C104.677 290.386 100.716 290.494 100.289 290.722C99.8031 290.992 99.5086 291.66 99.2325 292.114C98.798 292.845 98.3919 293.595 98.0139 294.363Z" fill="black"/>
<path d="M104.585 295.537C104.33 296.035 104.109 296.549 103.923 297.076C103.426 298.553 103.352 300.1 103.282 301.639C103.248 301.936 103.275 302.237 103.363 302.522C103.573 303.076 104.184 303.356 104.755 303.511C107.144 304.154 109.666 303.548 112.117 303.327C114.569 303.105 117.003 303.268 119.37 302.732C119.722 302.661 120.06 302.536 120.375 302.363C120.976 301.972 121.424 301.385 121.645 300.702C121.716 300.527 121.765 300.343 121.789 300.155C121.866 299.347 121.163 298.642 120.397 298.376C119.631 298.11 118.796 298.154 117.989 298.069C116.33 297.899 114.772 297.184 113.558 296.036C112.344 294.888 111.542 293.371 111.274 291.719C111.245 291.542 107.284 291.646 106.857 291.875C106.367 292.144 106.073 292.812 105.796 293.266C105.377 294.016 104.964 294.769 104.585 295.537Z" fill="#A26565"/>
<path d="M121.715 256.318C121.767 264.296 119.455 272.094 116.742 279.577C115.667 282.545 114.527 285.488 113.322 288.404C112.607 290.132 111.801 292.052 112.567 293.757C110.358 292.916 108.112 292.421 105.789 292.809C106.673 291 106.588 288.895 106.629 286.902C106.704 284.169 106.994 281.447 107.497 278.761C108.277 274.673 109.614 270.711 111.47 266.988C111.845 266.203 112.104 265.367 112.239 264.507C112.541 262.609 112.305 260.66 111.912 258.781C111.064 254.63 109.454 250.674 107.162 247.114L107.14 247.351C107.003 248.538 106.804 249.717 106.544 250.884C106.025 253.354 105.417 255.827 105.51 258.312C105.606 260.946 105.443 263.584 105.024 266.187C104.889 267.208 104.623 268.209 104.232 269.162C103.978 269.734 103.647 270.27 103.448 270.864C103.249 271.548 103.145 272.256 103.139 272.968C102.844 278.975 103.139 285.074 104.361 290.963C102.31 290.8 100.26 291.395 98.4265 292.317C96.993 288.102 95.9456 283.765 95.2973 279.359C94.4985 274.149 94.6607 268.835 95.7758 263.683C96.1234 261.965 96.2533 260.21 96.1624 258.459C96.0041 254.971 95.15 251.559 94.2996 248.17L93.0037 243.002C92.3902 240.54 91.7766 238.09 91.163 235.651C90.7544 234.023 90.3421 232.358 90.4709 230.682C90.5608 229.762 90.7534 228.856 91.0452 227.98C91.9644 224.999 93.3392 222.179 95.1206 219.621C102.215 220.02 109.393 219.355 116.473 218.809C116.816 218.741 117.172 218.801 117.474 218.979C117.715 219.225 117.859 219.55 117.879 219.894L120.541 235.031C120.972 237.135 121.224 239.271 121.295 241.418C121.295 243.559 120.964 245.693 121.045 247.831C121.156 250.71 121.7 253.435 121.715 256.318Z" fill="#454B69"/>
<path opacity="0.1" d="M107.148 247.351C107.01 248.538 106.811 249.717 106.551 250.884C105.009 248.207 103.345 245.597 101.924 242.854C101.556 242.149 101.21 241.433 100.86 240.716L99.8106 238.575C99.6154 238.173 99.4203 237.77 99.2436 237.36C98.9559 236.772 98.7349 236.153 98.5847 235.514C99.1001 235.418 100.374 236.814 100.757 237.18C101.538 237.955 102.275 238.773 102.966 239.631C103.804 240.584 104.574 241.596 105.27 242.658C106.161 244.102 106.796 245.69 107.148 247.351Z" fill="black"/>
<path d="M113.056 173.916C113.056 173.916 109.117 180.211 109.846 181.529C110.575 182.847 97.4394 180.358 97.4394 180.358C97.4394 180.358 104.592 174.064 103.86 171.428C103.127 168.792 113.056 173.916 113.056 173.916Z" fill="#EFB7B9"/>
<path d="M109.555 175.821C114.474 175.821 118.461 171.823 118.461 166.891C118.461 161.958 114.474 157.96 109.555 157.96C104.637 157.96 100.65 161.958 100.65 166.891C100.65 171.823 104.637 175.821 109.555 175.821Z" fill="#EFB7B9"/>
<path d="M113.189 180.517C112.235 179.19 110.942 178.147 109.445 177.497C108.582 177.188 107.691 176.967 106.783 176.84L103.231 176.213C102.362 176.057 101.43 175.913 100.621 176.272C100.211 176.482 99.8381 176.758 99.5161 177.088C98.2829 178.236 97.0864 179.495 95.5365 180.159C95.1132 180.34 94.6714 180.473 94.248 180.654C92.5141 181.392 91.2182 182.965 90.4856 184.715C89.7125 186.539 89.6904 188.521 89.7493 190.504C89.7483 191.188 89.8161 191.871 89.9518 192.542C90.129 193.18 90.3542 193.805 90.6255 194.41C91.115 195.704 91.5256 197.027 91.8551 198.371C92.7755 201.903 93.5412 205.472 94.1523 209.077C94.2041 209.594 94.3554 210.095 94.5978 210.554C94.941 211.013 95.3562 211.414 95.8274 211.739C96.2011 212.047 96.545 212.389 96.8545 212.762C97.0087 212.914 97.1237 213.102 97.1895 213.308C97.3036 213.84 96.8213 214.298 96.4532 214.685C95.661 215.496 95.0882 216.496 94.7892 217.591C94.6045 217.816 94.51 218.101 94.5241 218.392C94.6008 218.594 94.6298 218.812 94.6088 219.027C94.5363 219.223 94.422 219.401 94.2738 219.548C94.1039 219.77 93.9832 220.025 93.9197 220.298C93.8563 220.57 93.8515 220.853 93.9056 221.128C96.6651 222.33 99.6183 223.023 102.623 223.173C103.36 223.21 104.096 223.21 104.832 223.298C105.355 223.365 105.87 223.472 106.393 223.535C107.152 223.606 107.914 223.626 108.676 223.594C112.64 223.513 116.719 223.413 120.36 221.836C120.703 219.965 119.963 218.056 119.499 216.21C118.763 213.257 118.579 210.233 118.026 207.254C117.658 205.219 117.106 203.215 116.793 201.166C116.48 199.117 116.425 196.994 116.97 195C117.467 193.236 117.618 191.434 118.133 189.673C118.649 187.912 119.009 186.003 118.428 184.261C117.691 182.105 115.457 180.395 113.189 180.517Z" fill="#FFC107"/>
<path d="M117.562 162.154C117.997 160.57 117.142 158.92 116.126 157.631C115.022 156.247 113.616 154.999 111.889 154.652C110.486 154.368 109.032 154.711 107.604 154.597C106.341 154.497 105.126 154.039 103.871 153.858C102.732 153.735 101.581 153.779 100.455 153.988C99.3856 154.147 98.3405 154.44 97.3438 154.859C93.552 156.546 91.3321 160.703 90.8167 164.827C90.3013 168.951 91.2032 173.108 92.1015 177.165L92.9151 180.835C93.7618 184.656 94.6085 188.492 94.8331 192.398C95.0577 196.304 94.638 200.313 93.0366 203.879C98.2155 201.089 102.228 196.534 104.35 191.035C104.924 189.525 105.351 187.956 105.991 186.472C106.54 185.195 107.243 183.984 107.729 182.681C108.278 181.21 108.542 179.647 108.506 178.077C108.476 176.896 108.281 175.722 108.314 174.54C108.348 173.359 108.649 172.129 109.463 171.273C110.199 170.516 111.212 170.165 112.143 169.674C113.609 168.919 114.89 167.847 115.894 166.536C116.48 165.768 116.513 165.429 116.66 164.557C116.807 163.686 117.334 162.992 117.562 162.154Z" fill="#A26565"/>
<path d="M117.574 229.238C117.666 230.158 117.5 231.084 117.699 231.996C117.85 232.676 118.2 233.288 118.406 233.953C118.61 234.72 118.715 235.511 118.719 236.305C118.748 236.969 118.697 237.781 118.107 238.092C117.85 238.228 117.541 238.228 117.272 238.346C117.003 238.464 116.775 238.786 116.929 239.037C117.084 239.288 117.349 239.247 117.592 239.295C117.835 239.343 118.096 239.594 117.96 239.797C117.905 239.864 117.83 239.911 117.747 239.934C117.501 240.01 117.268 240.122 117.055 240.266C116.95 240.342 116.869 240.445 116.819 240.564C116.769 240.683 116.752 240.814 116.771 240.942C116.786 241.003 116.814 241.06 116.854 241.108C116.894 241.157 116.945 241.196 117.002 241.222C117.059 241.248 117.121 241.261 117.184 241.26C117.246 241.259 117.308 241.243 117.364 241.215C117.256 241.446 117.197 241.698 117.191 241.953C118.133 242.359 119.19 241.828 120.073 241.315C120.455 241.101 120.824 240.864 121.178 240.606C121.893 240.055 122.462 239.338 122.837 238.516C123.212 237.695 123.38 236.793 123.328 235.891C123.286 235.438 123.216 234.988 123.118 234.544C122.982 233.77 122.801 233.004 122.577 232.251C122.323 231.457 121.977 230.7 121.678 229.921C121.045 228.264 120.637 226.529 120.062 224.849C120.024 224.675 119.926 224.519 119.786 224.41C119.66 224.347 119.518 224.32 119.378 224.332C118.733 224.298 118.087 224.358 117.46 224.509C117.091 224.62 116.462 224.878 116.289 225.248C116.116 225.617 116.392 225.927 116.558 226.233C117.087 227.16 117.432 228.18 117.574 229.238Z" fill="#EFB7B9"/>
<path opacity="0.1" d="M116.973 184.379C117.162 184.573 117.321 184.795 117.444 185.036C118.711 187.343 118.725 190.101 118.784 192.734C118.851 195.687 119.012 198.641 119.174 201.612L119.657 210.473C119.705 211.318 119.749 212.164 119.87 213.002C120.437 213.146 120.459 213.884 120.397 214.479C119.988 218.089 118.976 221.807 120.029 225.281C120.069 225.459 120.154 225.624 120.275 225.761C119.741 225.593 119.169 225.585 118.63 225.739C118.103 225.85 117.595 226.045 117.065 226.167C116.395 226.318 115.637 226.385 115.18 226.905C114.663 225.345 114.251 223.751 113.947 222.136C113.697 220.659 113.627 219.138 113.03 217.772C112.791 217.222 112.467 216.712 112.172 216.184C110.63 213.423 109.872 210.303 109.132 207.224C108.8 205.764 108.72 204.258 108.896 202.772C109.003 202.094 109.065 201.409 109.08 200.723C109.035 199.998 108.941 199.278 108.797 198.567C108.484 196.479 108.631 194.348 109.227 192.324C109.78 190.445 110.265 188.466 111.436 186.886C112.607 185.306 115.018 184.405 116.973 184.379Z" fill="black"/>
<path d="M117.412 184.083C117.601 184.279 117.76 184.502 117.883 184.744C119.149 187.048 119.164 189.81 119.223 192.442C119.289 195.395 119.451 198.349 119.613 201.302L120.095 210.163C120.143 211.008 120.187 211.854 120.309 212.692C120.876 212.836 120.898 213.574 120.832 214.168C120.427 217.779 119.414 221.493 120.464 224.971C120.504 225.149 120.589 225.314 120.71 225.451C120.176 225.283 119.604 225.275 119.065 225.429C118.538 225.539 118.03 225.735 117.5 225.853C116.83 226.008 116.072 226.071 115.615 226.592C115.099 225.024 114.691 223.423 114.393 221.8C114.143 220.323 114.073 218.805 113.476 217.439C113.217 216.896 112.931 216.366 112.618 215.852C111.072 213.09 110.318 209.967 109.578 206.888C109.246 205.428 109.166 203.922 109.342 202.436C109.619 201.044 109.585 199.608 109.243 198.231C108.93 196.144 109.077 194.015 109.673 191.991C110.226 190.112 110.712 188.133 111.882 186.553C113.053 184.973 115.457 184.113 117.412 184.083Z" fill="#FFC107"/>
<g opacity="0.1">
<path opacity="0.1" d="M116.127 157.631C115.022 156.247 113.616 154.999 111.889 154.652C110.487 154.368 109.033 154.711 107.604 154.597C106.341 154.497 105.127 154.039 103.871 153.858C102.732 153.735 101.581 153.779 100.455 153.988C99.3858 154.147 98.3408 154.44 97.3441 154.859C96.8056 155.101 96.2916 155.394 95.8089 155.734C96.6961 155.388 97.6182 155.141 98.5589 154.995C99.6842 154.786 100.834 154.743 101.972 154.866C103.231 155.029 104.442 155.483 105.708 155.582C107.133 155.697 108.587 155.357 109.993 155.638C111.72 155.985 113.134 157.236 114.227 158.621C115.247 159.906 116.097 161.556 115.666 163.143C115.438 163.978 114.908 164.709 114.765 165.569C114.621 166.429 114.584 166.78 113.995 167.548C113.24 168.533 112.327 169.385 111.293 170.069C111.576 169.936 111.867 169.803 112.143 169.66C113.61 168.904 114.891 167.832 115.895 166.521C116.48 165.754 116.513 165.414 116.66 164.543C116.808 163.671 117.334 162.955 117.562 162.117C117.997 160.57 117.143 158.92 116.127 157.631Z" fill="black"/>
<path opacity="0.1" d="M109.463 171.295C109.615 171.137 109.782 170.992 109.96 170.863C109.11 171.277 108.215 171.639 107.563 172.34C106.75 173.193 106.459 174.426 106.415 175.607C106.371 176.789 106.58 177.963 106.606 179.14C106.642 180.712 106.379 182.276 105.829 183.748C105.343 185.051 104.64 186.258 104.092 187.539C103.455 189.016 103.028 190.589 102.454 192.099C100.613 196.866 97.3452 200.944 93.0991 203.773C93.077 203.821 93.0586 203.872 93.0365 203.92C98.2154 201.13 102.228 196.575 104.35 191.076C104.924 189.566 105.351 187.997 105.991 186.513C106.54 185.236 107.243 184.025 107.729 182.722C108.278 181.251 108.542 179.688 108.506 178.118C108.476 176.936 108.281 175.762 108.314 174.581C108.348 173.4 108.649 172.152 109.463 171.295Z" fill="black"/>
</g>
<defs>
<linearGradient id="paint0_linear" x1="105.539" y1="303.799" x2="105.539" y2="152.47" gradientUnits="userSpaceOnUse">
<stop stop-color="#808080" stop-opacity="0.25"/>
<stop offset="0.54" stop-color="#808080" stop-opacity="0.12"/>
<stop offset="1" stop-color="#808080" stop-opacity="0.1"/>
</linearGradient>
</defs>
</svg>
