<svg width="24" height="20" viewBox="0 0 24 20" fill="none" xmlns="http://www.w3.org/2000/svg">
<path fill-rule="evenodd" clip-rule="evenodd" d="M9.26318 17H1.75C0.785 17 0 16.215 0 15.25V12.75V1.75C0 0.785 0.785 0 1.75 0H22.25C23.215 0 24 0.785 24 1.75V12.75V15.25C24 16.215 23.215 17 22.25 17H14.7231C14.8984 17.4932 15.195 18.1163 15.6801 18.6345C15.8731 18.7705 16.0001 18.9955 16.0001 19.2505C16.0001 19.6645 15.6641 20.0005 15.2501 20.0005H8.75012C8.44612 20.0005 8.17312 19.8175 8.05712 19.5375C7.94212 19.2575 8.00512 18.9345 8.22012 18.7205C8.75996 18.1806 9.07978 17.5175 9.26318 17ZM10.8354 17C10.7263 17.3991 10.5401 17.9392 10.2321 18.5005H13.7541C13.4474 17.94 13.2606 17.399 13.1505 17H10.8354ZM13.7539 15.5H1.75C1.612 15.5 1.5 15.388 1.5 15.25V13.5H22.5V15.25C22.5 15.388 22.388 15.5 22.25 15.5H13.7554C13.7549 15.5 13.7544 15.5 13.7539 15.5ZM1.5 1.75V12H22.5V1.75C22.5 1.612 22.388 1.5 22.25 1.5H1.75C1.612 1.5 1.5 1.612 1.5 1.75Z" fill="#1D2228"/>
</svg>
