<svg width="177" height="144" viewBox="0 0 177 144" fill="none" xmlns="http://www.w3.org/2000/svg">
<g clip-path="url(#clip0)">
<path d="M167.239 117.755C170.328 128.751 140.596 153.875 88.2867 139.85C46.1701 128.558 9.33441 123.775 9.33441 117.755C9.33441 111.735 44.6825 118.05 88.2867 118.05C131.891 118.05 165.611 111.959 167.239 117.755Z" fill="#3F3D56"/>
<path opacity="0.1" d="M167.239 117.755C170.328 128.751 140.596 153.875 88.2867 139.85C46.1701 128.558 9.33441 123.775 9.33441 117.755C9.33441 111.735 44.6825 118.05 88.2867 118.05C131.891 118.05 165.611 111.959 167.239 117.755Z" fill="black"/>
<path d="M167.239 117.755C170.328 128.751 140.596 142.68 88.2867 128.655C46.1701 117.363 9.33441 123.775 9.33441 117.755C9.33441 111.735 44.6825 106.855 88.2867 106.855C131.891 106.855 165.611 111.959 167.239 117.755Z" fill="#3F3D56"/>
<path opacity="0.1" d="M113.674 125.652C117.047 125.652 119.781 124.706 119.781 123.539C119.781 122.371 117.047 121.425 113.674 121.425C110.302 121.425 107.568 122.371 107.568 123.539C107.568 124.706 110.302 125.652 113.674 125.652Z" fill="black"/>
<path opacity="0.1" d="M138.57 125.652C141.942 125.652 144.676 124.706 144.676 123.539C144.676 122.371 141.942 121.425 138.57 121.425C135.197 121.425 132.463 122.371 132.463 123.539C132.463 124.706 135.197 125.652 138.57 125.652Z" fill="black"/>
<path opacity="0.1" d="M88.3089 119.546C99.3344 119.546 108.272 117.127 108.272 114.144C108.272 111.161 99.3344 108.742 88.3089 108.742C77.2834 108.742 68.3454 111.161 68.3454 114.144C68.3454 117.127 77.2834 119.546 88.3089 119.546Z" fill="black"/>
<path d="M176.618 97.7034V0H0V97.7034H81.4978V110.764C77.4273 111.251 74.6868 112.161 74.6868 113.204C74.6868 114.761 80.7856 116.023 88.3089 116.023C95.8322 116.023 101.931 114.761 101.931 113.204C101.931 112.161 99.1904 111.251 95.1199 110.764V97.7034H176.618Z" fill="#3F3D56"/>
<path d="M167.458 3.42285H9.1597V90.9921H167.458V3.42285Z" fill="#F2F2F2"/>
<path opacity="0.1" d="M167.458 3.52295C167.458 3.52295 101.696 10.334 89.718 36.6388C77.74 62.9435 9.1597 90.8923 9.1597 90.8923H167.458V3.52295Z" fill="black"/>
<path d="M137.923 45.3286V51.8222H113.616V45.7256H112.912V123.538H113.616V109.608H137.923V123.538H138.628V45.3286H137.923ZM137.923 52.5268V63.2384H113.616V52.5268L137.923 52.5268ZM113.616 86.0709V75.3593H137.923V86.0709H113.616ZM137.923 86.7755V97.487H113.616V86.7755H137.923ZM113.616 74.6547V63.943H137.923V74.6547H113.616ZM113.616 108.903V98.1916H137.923V108.903H113.616Z" fill="#2F2E41"/>
<path d="M105.952 46.875V47.8483C105.952 47.8483 105.257 48.1264 105.257 49.2388C105.257 50.3511 104.701 54.5225 104.701 54.5225C104.701 54.5225 105.674 55.3568 106.508 55.0787C106.97 54.9385 107.397 54.7015 107.76 54.3835L107.899 50.073L107.343 48.9607V47.014L105.952 46.875Z" fill="#FFC107"/>
<path d="M132.552 8.22021C132.552 8.22021 130.134 8.49831 130.134 9.61067C130.134 10.723 128.199 14.8944 128.199 14.8944C128.199 14.8944 131.585 15.7287 134.487 15.4506C137.388 15.1725 138.839 14.7554 138.839 14.7554L139.323 10.4449L137.388 9.33258L132.552 8.22021Z" fill="#FFC107"/>
<path d="M132.788 17.9535V15.3116C132.788 15.3116 129.868 9.47168 132.232 9.47168C134.595 9.47168 134.874 14.7554 134.874 14.7554V18.5096L132.788 17.9535Z" fill="#FFB8B8"/>
<path d="M107.76 45.6237C107.76 45.6237 106.23 44.7894 105.952 45.6237C105.674 46.458 104.84 48.2656 105.952 48.4046C107.064 48.5437 108.177 47.5704 108.177 47.5704L107.76 45.6237Z" fill="#FFB8B8"/>
<path d="M115.287 51.2557C115.287 51.2557 114.45 52.3614 115.665 63.1492C116.88 73.9369 116.18 81.7918 118.486 81.6842C118.486 81.6842 117.884 84.0234 119.843 84.1097C121.803 84.196 122.698 84.332 122.851 83.7915C123.003 83.2511 123.242 80.751 122.71 80.7759C122.71 80.7759 122.743 81.4854 122.965 78.6306C123.188 75.7758 122.558 62.294 123.362 60.4787L126.507 66.9097C126.507 66.9097 126.648 69.9253 127.246 71.3196C127.845 72.7139 129.113 80.8325 129.113 80.8325L128.993 82.0825C128.993 82.0825 133.284 82.5933 133.428 81.8755C133.572 81.1576 133.523 80.0933 133.329 79.7468C133.135 79.4003 133.135 79.4003 133.456 78.6742C133.599 78.4012 133.681 78.1008 133.697 77.7933C133.714 77.4859 133.664 77.1785 133.551 76.892C133.349 76.3681 132.81 64.8376 132.81 64.8376C132.81 64.8376 131.801 50.8403 129.64 50.2301C127.478 49.6199 115.287 51.2557 115.287 51.2557Z" fill="#2F2E41"/>
<path d="M119.068 82.7236L117.764 85.2734C117.764 85.2734 115.51 84.5786 116.048 86.598C118.213 86.6653 120.379 86.5344 122.519 86.207C122.519 86.207 123.423 86.5203 123.575 85.9799C123.728 85.4394 123.02 83.6058 122.488 83.6306C121.956 83.6555 119.068 82.7236 119.068 82.7236Z" fill="#2F2E41"/>
<path d="M129.323 81.5341C129.323 81.5341 128.053 84.7934 128.594 84.9459C129.134 85.0985 133.957 85.5844 134.32 85.7453C134.683 85.9061 136.465 86.0007 136.593 84.928C136.72 83.8554 135.64 83.5503 135.64 83.5503C135.64 83.5503 133.672 83.2866 133.057 81.5375C132.442 79.7885 129.323 81.5341 129.323 81.5341Z" fill="#2F2E41"/>
<path d="M117.281 24.8108C119.332 24.8108 120.995 23.1479 120.995 21.0966C120.995 19.0452 119.332 17.3823 117.281 17.3823C115.23 17.3823 113.567 19.0452 113.567 21.0966C113.567 23.1479 115.23 24.8108 117.281 24.8108Z" fill="#FFB8B8"/>
<path d="M115.326 22.8564C115.326 22.8564 116.304 27.939 115.913 28.9164C115.522 29.8939 121.386 28.5255 121.386 28.5255C121.386 28.5255 120.213 23.4428 120.409 22.2699C120.604 21.097 115.326 22.8564 115.326 22.8564Z" fill="#FFB8B8"/>
<path d="M117.168 16.5092C116.859 16.4533 116.542 16.4673 116.239 16.5502C115.997 16.6575 115.774 16.8039 115.579 16.9834C115.225 17.2653 114.847 17.5155 114.45 17.7314C114.118 17.8742 113.819 18.0838 113.571 18.3471C113.467 18.491 113.383 18.649 113.323 18.8164C112.942 19.7893 112.84 20.8492 113.028 21.877C113.049 22.0231 113.093 22.1649 113.158 22.2973C113.361 22.6716 113.81 22.8192 114.188 23.0154C114.906 23.388 115.45 24.0153 116.038 24.5697C116.257 24.788 116.503 24.9774 116.769 25.1332C117.609 25.5911 118.636 25.4417 119.578 25.2798C119.645 25.2796 119.711 25.2663 119.773 25.2405C119.835 25.2147 119.89 25.177 119.937 25.1294C119.984 25.0819 120.022 25.0256 120.047 24.9637C120.072 24.9018 120.084 24.8355 120.084 24.7687L120.828 21.4219C120.963 20.926 121.027 20.4136 121.018 19.8998C120.967 19.0873 120.527 17.9619 119.93 17.3848C119.236 16.7124 118.076 16.6054 117.168 16.5092Z" fill="#2F2E41"/>
<path d="M114.434 29.216C114.434 29.216 114.712 27.2693 116.38 27.1303C117.324 27.0412 118.256 26.8548 119.161 26.5741C119.3 26.5741 121.108 26.7131 121.942 27.5474C121.942 27.5474 122.498 28.3817 122.777 27.8255C123.055 27.2693 123.055 26.9912 123.611 27.2693C124.167 27.5474 124.167 26.4351 125.14 26.5741C126.114 26.7131 128.616 32.9702 128.616 32.9702L127.782 33.9435C127.782 33.9435 126.67 41.452 128.616 44.65C130.563 47.8481 131.397 51.3242 129.451 52.0194C127.504 52.7147 113.878 58.9717 114.434 55.0785C114.99 51.1852 114.573 45.0672 114.017 44.9281C113.46 44.7891 110.401 33.8045 110.401 33.8045C110.524 33.1071 110.817 32.4506 111.254 31.8929C111.69 31.3352 112.257 30.8934 112.904 30.6064C115.129 29.6331 114.434 29.216 114.434 29.216Z" fill="#575A88"/>
<path d="M124.445 27.1304L125.14 26.5742C125.14 26.5742 126.392 26.5742 126.531 26.2961C126.67 26.0181 127.365 26.0181 127.921 25.74C128.478 25.4619 127.782 25.0447 128.478 24.7667C129.173 24.4886 129.173 24.7667 129.173 24.0714C129.173 23.3762 130.98 22.681 131.119 21.8467C131.258 21.0124 132.649 17.1191 132.649 17.1191L135.291 17.9534L134.596 22.9591C134.596 22.9591 134.596 25.4619 133.344 27.1304C132.093 28.799 129.312 32.9703 127.921 33.1094C126.531 33.2484 124.445 27.1304 124.445 27.1304Z" fill="#575A88"/>
<path d="M111.236 33.1094L110.402 33.8046C110.402 33.8046 110.123 36.8636 110.123 37.0026C110.123 37.1417 110.402 38.8102 110.123 38.9493C109.845 39.0883 109.289 41.8692 109.428 42.0083V42.4254L107.482 45.4844V48.4044L112.07 45.4844C112.07 45.4844 114.712 45.2063 114.295 42.8426C113.878 40.4788 111.236 33.1094 111.236 33.1094Z" fill="#575A88"/>
<path d="M88.3089 97.7036C89.7357 97.7036 90.8924 96.547 90.8924 95.1201C90.8924 93.6933 89.7357 92.5366 88.3089 92.5366C86.882 92.5366 85.7254 93.6933 85.7254 95.1201C85.7254 96.547 86.882 97.7036 88.3089 97.7036Z" fill="#FFC107"/>
</g>
<defs>
<clipPath id="clip0">
<rect width="176.618" height="144" fill="white"/>
</clipPath>
</defs>
</svg>
