<svg width="14" height="14" viewBox="0 0 14 14" fill="none" xmlns="http://www.w3.org/2000/svg">
<path fill-rule="evenodd" clip-rule="evenodd" d="M0 7C0 3.13438 3.13438 0 7 0C10.8656 0 14 3.13438 14 7C14 10.8656 10.8656 14 7 14C3.13438 14 0 10.8656 0 7ZM1.1875 7C1.1875 10.2094 3.79063 12.8125 7 12.8125C10.2094 12.8125 12.8125 10.2094 12.8125 7C12.8125 3.79063 10.2094 1.1875 7 1.1875C3.79063 1.1875 1.1875 3.79063 1.1875 7ZM10.6315 4.37346C10.7009 4.39995 10.7638 4.43877 10.8167 4.48767C10.8745 4.53653 10.9206 4.59583 10.9522 4.66184C10.9837 4.72784 11 4.79912 11 4.87117C11 4.94323 10.9837 5.01451 10.9522 5.08051C10.9206 5.14652 10.8745 5.20582 10.8167 5.25468L6.17175 9.51233C6.11884 9.56123 6.05588 9.60005 5.98651 9.62654C5.91714 9.65303 5.84274 9.66667 5.7676 9.66667C5.69245 9.66667 5.61805 9.65303 5.54868 9.62654C5.47931 9.60005 5.41635 9.56123 5.36344 9.51233L3.17756 7.50873C3.12261 7.46008 3.07866 7.40199 3.04821 7.33777C3.01776 7.27355 3.00141 7.20446 3.00009 7.13445C2.99877 7.06444 3.0125 6.99487 3.04051 6.92973C3.06852 6.86458 3.11025 6.80513 3.16333 6.75477C3.2164 6.70441 3.27978 6.66412 3.34984 6.63621C3.4199 6.6083 3.49527 6.59331 3.57166 6.5921C3.64804 6.59088 3.72393 6.60348 3.795 6.62915C3.86607 6.65482 3.93093 6.69307 3.98588 6.74172L5.7676 8.38008L10.0084 4.48767C10.0613 4.43877 10.1243 4.39995 10.1937 4.37346C10.263 4.34697 10.3374 4.33333 10.4126 4.33333C10.4877 4.33333 10.5621 4.34697 10.6315 4.37346Z" fill="#28CC6C"/>
</svg>
