<svg width="18" height="13" viewBox="0 0 18 13" fill="none" xmlns="http://www.w3.org/2000/svg">
    <path fill-rule="evenodd" clip-rule="evenodd"
          d="M0 0H10.2857L18 6.5L10.2857 13H0V0ZM9.83333 9H3.16667C2.9375 9 2.75 8.8125 2.75 8.58333C2.75 8.35417 2.9375 8.16667 3.16667 8.16667H9.83333C10.0625 8.16667 10.25 8.35417 10.25 8.58333C10.25 8.8125 10.0625 9 9.83333 9ZM9.83333 6.91667H3.16667C2.9375 6.91667 2.75 6.72917 2.75 6.5C2.75 6.27083 2.9375 6.08333 3.16667 6.08333H9.83333C10.0625 6.08333 10.25 6.27083 10.25 6.5C10.25 6.72917 10.0625 6.91667 9.83333 6.91667ZM3.16667 4.83333C2.9375 4.83333 2.75 4.64583 2.75 4.41667C2.75 4.1875 2.9375 4 3.16667 4H9.83333C10.0625 4 10.25 4.1875 10.25 4.41667C10.25 4.64583 10.0625 4.83333 9.83333 4.83333H3.16667Z"
          fill="#C8D1E0"/>
</svg>
